<?xml version="1.0" encoding="UTF-8" standalone="no"?>
<!DOCTYPE svg PUBLIC "-//W3C//DTD SVG 1.1//EN"
 "http://www.w3.org/Graphics/SVG/1.1/DTD/svg11.dtd">
<!-- Generated by graphviz version 2.40.1 (20161225.0304)
 -->
<!-- Title: G Pages: 1 -->
<svg width="1075pt" height="1218pt"
 viewBox="0.00 0.00 1075.39 1218.00" xmlns="http://www.w3.org/2000/svg" xmlns:xlink="http://www.w3.org/1999/xlink">
<g id="graph0" class="graph" transform="scale(1 1) rotate(0) translate(4 1214)">
<title>G</title>
<polygon fill="#ffffff" stroke="transparent" points="-4,4 -4,-1214 1071.3875,-1214 1071.3875,4 -4,4"/>
<g id="clust1" class="cluster">
<title>cluster_Global</title>
<path fill="none" stroke="#c0c0c0" d="M200.3875,-44C200.3875,-44 1047.3875,-44 1047.3875,-44 1053.3875,-44 1059.3875,-50 1059.3875,-56 1059.3875,-56 1059.3875,-1190 1059.3875,-1190 1059.3875,-1196 1053.3875,-1202 1047.3875,-1202 1047.3875,-1202 200.3875,-1202 200.3875,-1202 194.3875,-1202 188.3875,-1196 188.3875,-1190 188.3875,-1190 188.3875,-56 188.3875,-56 188.3875,-50 194.3875,-44 200.3875,-44"/>
<text text-anchor="middle" x="623.8875" y="-1189.2" font-family="Times,serif" font-size="11.00" fill="#c0c0c0">Global</text>
</g>
<g id="clust2" class="cluster">
<title>cluster_\GeoIp2</title>
<path fill="none" stroke="#c0c0c0" d="M208.3875,-52C208.3875,-52 1039.3875,-52 1039.3875,-52 1045.3875,-52 1051.3875,-58 1051.3875,-64 1051.3875,-64 1051.3875,-1162 1051.3875,-1162 1051.3875,-1168 1045.3875,-1174 1039.3875,-1174 1039.3875,-1174 208.3875,-1174 208.3875,-1174 202.3875,-1174 196.3875,-1168 196.3875,-1162 196.3875,-1162 196.3875,-64 196.3875,-64 196.3875,-58 202.3875,-52 208.3875,-52"/>
<text text-anchor="middle" x="623.8875" y="-1161.2" font-family="Times,serif" font-size="11.00" fill="#c0c0c0">GeoIp2</text>
</g>
<g id="clust3" class="cluster">
<title>cluster_\GeoIp2\Model</title>
<path fill="none" stroke="#c0c0c0" d="M219.8875,-804C219.8875,-804 987.3875,-804 987.3875,-804 993.3875,-804 999.3875,-810 999.3875,-816 999.3875,-816 999.3875,-1134 999.3875,-1134 999.3875,-1140 993.3875,-1146 987.3875,-1146 987.3875,-1146 219.8875,-1146 219.8875,-1146 213.8875,-1146 207.8875,-1140 207.8875,-1134 207.8875,-1134 207.8875,-816 207.8875,-816 207.8875,-810 213.8875,-804 219.8875,-804"/>
<text text-anchor="middle" x="603.6375" y="-1133.2" font-family="Times,serif" font-size="11.00" fill="#c0c0c0">Model</text>
</g>
<g id="clust4" class="cluster">
<title>cluster_\GeoIp2\Record</title>
<path fill="none" stroke="#c0c0c0" d="M216.3875,-508C216.3875,-508 1014.3875,-508 1014.3875,-508 1020.3875,-508 1026.3875,-514 1026.3875,-520 1026.3875,-520 1026.3875,-784 1026.3875,-784 1026.3875,-790 1020.3875,-796 1014.3875,-796 1014.3875,-796 216.3875,-796 216.3875,-796 210.3875,-796 204.3875,-790 204.3875,-784 204.3875,-784 204.3875,-520 204.3875,-520 204.3875,-514 210.3875,-508 216.3875,-508"/>
<text text-anchor="middle" x="615.3875" y="-783.2" font-family="Times,serif" font-size="11.00" fill="#c0c0c0">Record</text>
</g>
<g id="clust5" class="cluster">
<title>cluster_\GeoIp2\WebService</title>
<path fill="none" stroke="#c0c0c0" d="M924.8875,-186C924.8875,-186 973.8875,-186 973.8875,-186 979.8875,-186 985.8875,-192 985.8875,-198 985.8875,-198 985.8875,-246 985.8875,-246 985.8875,-252 979.8875,-258 973.8875,-258 973.8875,-258 924.8875,-258 924.8875,-258 918.8875,-258 912.8875,-252 912.8875,-246 912.8875,-246 912.8875,-198 912.8875,-198 912.8875,-192 918.8875,-186 924.8875,-186"/>
<text text-anchor="middle" x="949.3875" y="-245.2" font-family="Times,serif" font-size="11.00" fill="#c0c0c0">WebService</text>
</g>
<g id="clust6" class="cluster">
<title>cluster_\GeoIp2\Exception</title>
<path fill="none" stroke="#c0c0c0" d="M412.8875,-266C412.8875,-266 1031.3875,-266 1031.3875,-266 1037.3875,-266 1043.3875,-272 1043.3875,-278 1043.3875,-278 1043.3875,-488 1043.3875,-488 1043.3875,-494 1037.3875,-500 1031.3875,-500 1031.3875,-500 412.8875,-500 412.8875,-500 406.8875,-500 400.8875,-494 400.8875,-488 400.8875,-488 400.8875,-278 400.8875,-278 400.8875,-272 406.8875,-266 412.8875,-266"/>
<text text-anchor="middle" x="722.1375" y="-487.2" font-family="Times,serif" font-size="11.00" fill="#c0c0c0">Exception</text>
</g>
<g id="clust7" class="cluster">
<title>cluster_\GeoIp2\Database</title>
<path fill="none" stroke="#c0c0c0" d="M924.8875,-106C924.8875,-106 973.8875,-106 973.8875,-106 979.8875,-106 985.8875,-112 985.8875,-118 985.8875,-118 985.8875,-166 985.8875,-166 985.8875,-172 979.8875,-178 973.8875,-178 973.8875,-178 924.8875,-178 924.8875,-178 918.8875,-178 912.8875,-172 912.8875,-166 912.8875,-166 912.8875,-118 912.8875,-118 912.8875,-112 918.8875,-106 924.8875,-106"/>
<text text-anchor="middle" x="949.3875" y="-165.2" font-family="Times,serif" font-size="11.00" fill="#c0c0c0">Database</text>
</g>
<!-- \\GeoIp2\\Model\\Isp -->
<g id="node1" class="node">
<title>\\GeoIp2\\Model\\Isp</title>
<polygon fill="none" stroke="#000000" points="494.8875,-1118 440.8875,-1118 440.8875,-1082 494.8875,-1082 494.8875,-1118"/>
<text text-anchor="middle" x="467.8875" y="-1097.2" font-family="Courier,monospace" font-size="11.00" fill="#000000">Isp</text>
</g>
<!-- \\GeoIp2\\Model\\AbstractModel -->
<g id="node5" class="node">
<title>\\GeoIp2\\Model\\AbstractModel</title>
<polygon fill="none" stroke="#000000" points="319.8875,-956 215.8875,-956 215.8875,-920 319.8875,-920 319.8875,-956"/>
<text text-anchor="start" x="233.8875" y="-941.2" font-family="Courier,monospace" font-size="11.00" fill="#000000">«abstract»</text>
<text text-anchor="start" x="223.8875" y="-929.2" font-family="Courier,monospace" font-size="11.00" fill="#000000">AbstractModel</text>
</g>
<!-- \\GeoIp2\\Model\\Isp&#45;&gt;\\GeoIp2\\Model\\AbstractModel -->
<g id="edge1" class="edge">
<title>\\GeoIp2\\Model\\Isp&#45;&gt;\\GeoIp2\\Model\\AbstractModel</title>
<path fill="none" stroke="#000000" d="M440.6657,-1093.0989C426.4334,-1088.7152 409.1588,-1082.1258 395.3875,-1073 350.3834,-1043.1771 309.6975,-994.6004 286.9393,-964.569"/>
<polygon fill="none" stroke="#000000" points="289.5214,-962.1768 280.7369,-956.2536 283.9103,-966.3621 289.5214,-962.1768"/>
</g>
<!-- \\GeoIp2\\Model\\ConnectionType -->
<g id="node2" class="node">
<title>\\GeoIp2\\Model\\ConnectionType</title>
<polygon fill="none" stroke="#000000" points="523.3875,-1064 412.3875,-1064 412.3875,-1028 523.3875,-1028 523.3875,-1064"/>
<text text-anchor="middle" x="467.8875" y="-1043.2" font-family="Courier,monospace" font-size="11.00" fill="#000000">ConnectionType</text>
</g>
<!-- \\GeoIp2\\Model\\ConnectionType&#45;&gt;\\GeoIp2\\Model\\AbstractModel -->
<g id="edge2" class="edge">
<title>\\GeoIp2\\Model\\ConnectionType&#45;&gt;\\GeoIp2\\Model\\AbstractModel</title>
<path fill="none" stroke="#000000" d="M415.4486,-1027.969C408.605,-1025.1818 401.7623,-1022.1682 395.3875,-1019 361.9858,-1002.3998 326.3428,-979.2424 301.2594,-961.9382"/>
<polygon fill="none" stroke="#000000" points="303.0551,-958.9236 292.8485,-956.0819 299.0552,-964.6683 303.0551,-958.9236"/>
</g>
<!-- \\GeoIp2\\Model\\City -->
<g id="node3" class="node">
<title>\\GeoIp2\\Model\\City</title>
<polygon fill="none" stroke="#000000" points="728.8875,-848 674.8875,-848 674.8875,-812 728.8875,-812 728.8875,-848"/>
<text text-anchor="middle" x="701.8875" y="-827.2" font-family="Courier,monospace" font-size="11.00" fill="#000000">City</text>
</g>
<!-- \\GeoIp2\\Model\\Country -->
<g id="node9" class="node">
<title>\\GeoIp2\\Model\\Country</title>
<polygon fill="none" stroke="#000000" points="499.8875,-848 435.8875,-848 435.8875,-812 499.8875,-812 499.8875,-848"/>
<text text-anchor="middle" x="467.8875" y="-827.2" font-family="Courier,monospace" font-size="11.00" fill="#000000">Country</text>
</g>
<!-- \\GeoIp2\\Model\\City&#45;&gt;\\GeoIp2\\Model\\Country -->
<g id="edge3" class="edge">
<title>\\GeoIp2\\Model\\City&#45;&gt;\\GeoIp2\\Model\\Country</title>
<path fill="none" stroke="#000000" d="M674.5868,-830C634.1522,-830 557.9964,-830 510.2691,-830"/>
<polygon fill="none" stroke="#000000" points="510.2476,-826.5001 500.2476,-830 510.2476,-833.5001 510.2476,-826.5001"/>
</g>
<!-- \\GeoIp2\\Model\\AnonymousIp -->
<g id="node4" class="node">
<title>\\GeoIp2\\Model\\AnonymousIp</title>
<polygon fill="none" stroke="#000000" points="513.3875,-1010 422.3875,-1010 422.3875,-974 513.3875,-974 513.3875,-1010"/>
<text text-anchor="middle" x="467.8875" y="-989.2" font-family="Courier,monospace" font-size="11.00" fill="#000000">AnonymousIp</text>
</g>
<!-- \\GeoIp2\\Model\\AnonymousIp&#45;&gt;\\GeoIp2\\Model\\AbstractModel -->
<g id="edge4" class="edge">
<title>\\GeoIp2\\Model\\AnonymousIp&#45;&gt;\\GeoIp2\\Model\\AbstractModel</title>
<path fill="none" stroke="#000000" d="M422.2542,-979.679C394.9091,-972.2958 359.7714,-962.8086 329.9296,-954.7514"/>
<polygon fill="none" stroke="#000000" points="330.5979,-951.3065 320.0312,-952.0788 328.7732,-958.0645 330.5979,-951.3065"/>
</g>
<!-- \\JsonSerializable -->
<g id="node32" class="node">
<title>\\JsonSerializable</title>
<ellipse fill="none" stroke="#000000" cx="70.1938" cy="-817" rx="70.3881" ry="18"/>
<text text-anchor="middle" x="70.1938" y="-813.3" font-family="Times,serif" font-size="14.00" fill="#c0c0c0">\JsonSerializable</text>
</g>
<!-- \\GeoIp2\\Model\\AbstractModel&#45;&gt;\\JsonSerializable -->
<g id="edge5" class="edge">
<title>\\GeoIp2\\Model\\AbstractModel&#45;&gt;\\JsonSerializable</title>
<path fill="none" stroke="#000000" stroke-dasharray="1,5" d="M238.2908,-919.8851C202.9898,-898.2788 144.0084,-862.1788 106.1252,-838.9921"/>
<polygon fill="none" stroke="#000000" points="107.8003,-835.9139 97.4439,-833.6787 104.146,-841.8843 107.8003,-835.9139"/>
</g>
<!-- \\GeoIp2\\Model\\Asn -->
<g id="node6" class="node">
<title>\\GeoIp2\\Model\\Asn</title>
<polygon fill="none" stroke="#000000" points="494.8875,-956 440.8875,-956 440.8875,-920 494.8875,-920 494.8875,-956"/>
<text text-anchor="middle" x="467.8875" y="-935.2" font-family="Courier,monospace" font-size="11.00" fill="#000000">Asn</text>
</g>
<!-- \\GeoIp2\\Model\\Asn&#45;&gt;\\GeoIp2\\Model\\AbstractModel -->
<g id="edge6" class="edge">
<title>\\GeoIp2\\Model\\Asn&#45;&gt;\\GeoIp2\\Model\\AbstractModel</title>
<path fill="none" stroke="#000000" d="M440.4978,-938C412.2369,-938 367.1893,-938 330.2002,-938"/>
<polygon fill="none" stroke="#000000" points="330.0017,-934.5001 320.0017,-938 330.0017,-941.5001 330.0017,-934.5001"/>
</g>
<!-- \\GeoIp2\\Model\\Insights -->
<g id="node7" class="node">
<title>\\GeoIp2\\Model\\Insights</title>
<polygon fill="none" stroke="#000000" points="984.8875,-902 913.8875,-902 913.8875,-866 984.8875,-866 984.8875,-902"/>
<text text-anchor="middle" x="949.3875" y="-881.2" font-family="Courier,monospace" font-size="11.00" fill="#000000">Insights</text>
</g>
<!-- \\GeoIp2\\Model\\Insights&#45;&gt;\\GeoIp2\\Model\\City -->
<g id="edge7" class="edge">
<title>\\GeoIp2\\Model\\Insights&#45;&gt;\\GeoIp2\\Model\\City</title>
<path fill="none" stroke="#000000" d="M913.6632,-876.2056C867.1439,-866.0559 786.216,-848.3989 739.0161,-838.1008"/>
<polygon fill="none" stroke="#000000" points="739.7141,-834.6708 729.1978,-835.9586 738.2219,-841.5099 739.7141,-834.6708"/>
</g>
<!-- \\GeoIp2\\Model\\Domain -->
<g id="node8" class="node">
<title>\\GeoIp2\\Model\\Domain</title>
<polygon fill="none" stroke="#000000" points="496.3875,-902 439.3875,-902 439.3875,-866 496.3875,-866 496.3875,-902"/>
<text text-anchor="middle" x="467.8875" y="-881.2" font-family="Courier,monospace" font-size="11.00" fill="#000000">Domain</text>
</g>
<!-- \\GeoIp2\\Model\\Domain&#45;&gt;\\GeoIp2\\Model\\AbstractModel -->
<g id="edge8" class="edge">
<title>\\GeoIp2\\Model\\Domain&#45;&gt;\\GeoIp2\\Model\\AbstractModel</title>
<path fill="none" stroke="#000000" d="M439.2324,-891.7369C410.8972,-899.3874 366.6156,-911.3434 330.1676,-921.1844"/>
<polygon fill="none" stroke="#000000" points="328.8568,-917.9129 320.1148,-923.8986 330.6815,-924.6709 328.8568,-917.9129"/>
</g>
<!-- \\GeoIp2\\Model\\Country&#45;&gt;\\GeoIp2\\Model\\AbstractModel -->
<g id="edge9" class="edge">
<title>\\GeoIp2\\Model\\Country&#45;&gt;\\GeoIp2\\Model\\AbstractModel</title>
<path fill="none" stroke="#000000" d="M435.876,-840.2922C423.0343,-844.8377 408.2573,-850.6039 395.3875,-857 361.9858,-873.6002 326.3428,-896.7576 301.2594,-914.0618"/>
<polygon fill="none" stroke="#000000" points="299.0552,-911.3317 292.8485,-919.9181 303.0551,-917.0764 299.0552,-911.3317"/>
</g>
<!-- \\GeoIp2\\Model\\Enterprise -->
<g id="node10" class="node">
<title>\\GeoIp2\\Model\\Enterprise</title>
<polygon fill="none" stroke="#000000" points="991.3875,-848 907.3875,-848 907.3875,-812 991.3875,-812 991.3875,-848"/>
<text text-anchor="middle" x="949.3875" y="-827.2" font-family="Courier,monospace" font-size="11.00" fill="#000000">Enterprise</text>
</g>
<!-- \\GeoIp2\\Model\\Enterprise&#45;&gt;\\GeoIp2\\Model\\City -->
<g id="edge10" class="edge">
<title>\\GeoIp2\\Model\\Enterprise&#45;&gt;\\GeoIp2\\Model\\City</title>
<path fill="none" stroke="#000000" d="M907.122,-830C859.9574,-830 784.3655,-830 739.2769,-830"/>
<polygon fill="none" stroke="#000000" points="739.0514,-826.5001 729.0513,-830 739.0513,-833.5001 739.0514,-826.5001"/>
</g>
<!-- \\GeoIp2\\Record\\City -->
<g id="node11" class="node">
<title>\\GeoIp2\\Record\\City</title>
<polygon fill="none" stroke="#000000" points="728.8875,-714 674.8875,-714 674.8875,-678 728.8875,-678 728.8875,-714"/>
<text text-anchor="middle" x="701.8875" y="-693.2" font-family="Courier,monospace" font-size="11.00" fill="#000000">City</text>
</g>
<!-- \\GeoIp2\\Record\\AbstractPlaceRecord -->
<g id="node19" class="node">
<title>\\GeoIp2\\Record\\AbstractPlaceRecord</title>
<polygon fill="none" stroke="#000000" points="540.3875,-552 395.3875,-552 395.3875,-516 540.3875,-516 540.3875,-552"/>
<text text-anchor="start" x="433.8875" y="-537.2" font-family="Courier,monospace" font-size="11.00" fill="#000000">«abstract»</text>
<text text-anchor="start" x="403.3875" y="-525.2" font-family="Courier,monospace" font-size="11.00" fill="#000000">AbstractPlaceRecord</text>
</g>
<!-- \\GeoIp2\\Record\\City&#45;&gt;\\GeoIp2\\Record\\AbstractPlaceRecord -->
<g id="edge11" class="edge">
<title>\\GeoIp2\\Record\\City&#45;&gt;\\GeoIp2\\Record\\AbstractPlaceRecord</title>
<path fill="none" stroke="#000000" d="M674.6557,-692.7275C655.6968,-689.3374 630.6411,-682.5309 612.3875,-669 566.0431,-634.646 585.6179,-596.808 540.3875,-561 538.8079,-559.7495 537.1645,-558.5528 535.4702,-557.4079"/>
<polygon fill="none" stroke="#000000" points="537.0099,-554.2501 526.6343,-552.1062 533.4084,-560.2525 537.0099,-554.2501"/>
</g>
<!-- \\GeoIp2\\Record\\Traits -->
<g id="node12" class="node">
<title>\\GeoIp2\\Record\\Traits</title>
<polygon fill="none" stroke="#000000" points="496.3875,-768 439.3875,-768 439.3875,-732 496.3875,-732 496.3875,-768"/>
<text text-anchor="middle" x="467.8875" y="-747.2" font-family="Courier,monospace" font-size="11.00" fill="#000000">Traits</text>
</g>
<!-- \\GeoIp2\\Record\\AbstractRecord -->
<g id="node14" class="node">
<title>\\GeoIp2\\Record\\AbstractRecord</title>
<polygon fill="none" stroke="#000000" points="323.3875,-687 212.3875,-687 212.3875,-651 323.3875,-651 323.3875,-687"/>
<text text-anchor="start" x="233.8875" y="-672.2" font-family="Courier,monospace" font-size="11.00" fill="#000000">«abstract»</text>
<text text-anchor="start" x="220.3875" y="-660.2" font-family="Courier,monospace" font-size="11.00" fill="#000000">AbstractRecord</text>
</g>
<!-- \\GeoIp2\\Record\\Traits&#45;&gt;\\GeoIp2\\Record\\AbstractRecord -->
<g id="edge12" class="edge">
<title>\\GeoIp2\\Record\\Traits&#45;&gt;\\GeoIp2\\Record\\AbstractRecord</title>
<path fill="none" stroke="#000000" d="M439.1959,-739.6457C425.8279,-734.7369 409.7399,-728.7086 395.3875,-723 369.9641,-712.8879 341.9442,-701.0933 318.6621,-691.1111"/>
<polygon fill="none" stroke="#000000" points="319.8971,-687.8323 309.3278,-687.0975 317.132,-694.2631 319.8971,-687.8323"/>
</g>
<!-- \\GeoIp2\\Record\\Location -->
<g id="node13" class="node">
<title>\\GeoIp2\\Record\\Location</title>
<polygon fill="none" stroke="#000000" points="503.3875,-714 432.3875,-714 432.3875,-678 503.3875,-678 503.3875,-714"/>
<text text-anchor="middle" x="467.8875" y="-693.2" font-family="Courier,monospace" font-size="11.00" fill="#000000">Location</text>
</g>
<!-- \\GeoIp2\\Record\\Location&#45;&gt;\\GeoIp2\\Record\\AbstractRecord -->
<g id="edge13" class="edge">
<title>\\GeoIp2\\Record\\Location&#45;&gt;\\GeoIp2\\Record\\AbstractRecord</title>
<path fill="none" stroke="#000000" d="M432.1316,-691.1729C404.8427,-687.4889 366.485,-682.3107 333.7005,-677.8847"/>
<polygon fill="none" stroke="#000000" points="334.1017,-674.4072 323.7233,-676.5378 333.1651,-681.3443 334.1017,-674.4072"/>
</g>
<!-- \\GeoIp2\\Record\\AbstractRecord&#45;&gt;\\JsonSerializable -->
<g id="edge14" class="edge">
<title>\\GeoIp2\\Record\\AbstractRecord&#45;&gt;\\JsonSerializable</title>
<path fill="none" stroke="#000000" stroke-dasharray="1,5" d="M243.6464,-687.1477C207.8922,-713.9145 141.0031,-763.9898 101.5553,-793.5217"/>
<polygon fill="none" stroke="#000000" points="99.0089,-791.0559 93.1012,-799.8508 103.204,-796.6596 99.0089,-791.0559"/>
</g>
<!-- \\GeoIp2\\Record\\Postal -->
<g id="node15" class="node">
<title>\\GeoIp2\\Record\\Postal</title>
<polygon fill="none" stroke="#000000" points="496.3875,-660 439.3875,-660 439.3875,-624 496.3875,-624 496.3875,-660"/>
<text text-anchor="middle" x="467.8875" y="-639.2" font-family="Courier,monospace" font-size="11.00" fill="#000000">Postal</text>
</g>
<!-- \\GeoIp2\\Record\\Postal&#45;&gt;\\GeoIp2\\Record\\AbstractRecord -->
<g id="edge15" class="edge">
<title>\\GeoIp2\\Record\\Postal&#45;&gt;\\GeoIp2\\Record\\AbstractRecord</title>
<path fill="none" stroke="#000000" d="M439.2324,-645.8684C411.903,-649.5579 369.7394,-655.25 334.0776,-660.0643"/>
<polygon fill="none" stroke="#000000" points="333.1693,-656.6551 323.7275,-661.4616 334.1059,-663.5922 333.1693,-656.6551"/>
</g>
<!-- \\GeoIp2\\Record\\Continent -->
<g id="node16" class="node">
<title>\\GeoIp2\\Record\\Continent</title>
<polygon fill="none" stroke="#000000" points="740.3875,-660 663.3875,-660 663.3875,-624 740.3875,-624 740.3875,-660"/>
<text text-anchor="middle" x="701.8875" y="-639.2" font-family="Courier,monospace" font-size="11.00" fill="#000000">Continent</text>
</g>
<!-- \\GeoIp2\\Record\\Continent&#45;&gt;\\GeoIp2\\Record\\AbstractPlaceRecord -->
<g id="edge16" class="edge">
<title>\\GeoIp2\\Record\\Continent&#45;&gt;\\GeoIp2\\Record\\AbstractPlaceRecord</title>
<path fill="none" stroke="#000000" d="M663.3055,-633.5333C647.0835,-629.1755 628.3187,-623.0574 612.3875,-615 576.6931,-596.9471 575.4908,-580.1771 540.3875,-561 537.3487,-559.3399 534.1866,-557.7403 530.9569,-556.2058"/>
<polygon fill="none" stroke="#000000" points="532.2785,-552.9626 521.7223,-552.058 529.4103,-559.3481 532.2785,-552.9626"/>
</g>
<!-- \\GeoIp2\\Record\\MaxMind -->
<g id="node17" class="node">
<title>\\GeoIp2\\Record\\MaxMind</title>
<polygon fill="none" stroke="#000000" points="499.8875,-606 435.8875,-606 435.8875,-570 499.8875,-570 499.8875,-606"/>
<text text-anchor="middle" x="467.8875" y="-585.2" font-family="Courier,monospace" font-size="11.00" fill="#000000">MaxMind</text>
</g>
<!-- \\GeoIp2\\Record\\MaxMind&#45;&gt;\\GeoIp2\\Record\\AbstractRecord -->
<g id="edge17" class="edge">
<title>\\GeoIp2\\Record\\MaxMind&#45;&gt;\\GeoIp2\\Record\\AbstractRecord</title>
<path fill="none" stroke="#000000" d="M435.6498,-599.6593C423.0431,-604.309 408.4919,-609.7878 395.3875,-615 369.9641,-625.1121 341.9442,-636.9067 318.6621,-646.8889"/>
<polygon fill="none" stroke="#000000" points="317.132,-643.7369 309.3278,-650.9025 319.8971,-650.1677 317.132,-643.7369"/>
</g>
<!-- \\GeoIp2\\Record\\Country -->
<g id="node18" class="node">
<title>\\GeoIp2\\Record\\Country</title>
<polygon fill="none" stroke="#000000" points="733.8875,-552 669.8875,-552 669.8875,-516 733.8875,-516 733.8875,-552"/>
<text text-anchor="middle" x="701.8875" y="-531.2" font-family="Courier,monospace" font-size="11.00" fill="#000000">Country</text>
</g>
<!-- \\GeoIp2\\Record\\Country&#45;&gt;\\GeoIp2\\Record\\AbstractPlaceRecord -->
<g id="edge18" class="edge">
<title>\\GeoIp2\\Record\\Country&#45;&gt;\\GeoIp2\\Record\\AbstractPlaceRecord</title>
<path fill="none" stroke="#000000" d="M669.8415,-534C639.3139,-534 592.0448,-534 550.9108,-534"/>
<polygon fill="none" stroke="#000000" points="550.874,-530.5001 540.874,-534 550.874,-537.5001 550.874,-530.5001"/>
</g>
<!-- \\GeoIp2\\Record\\AbstractPlaceRecord&#45;&gt;\\GeoIp2\\Record\\AbstractRecord -->
<g id="edge19" class="edge">
<title>\\GeoIp2\\Record\\AbstractPlaceRecord&#45;&gt;\\GeoIp2\\Record\\AbstractRecord</title>
<path fill="none" stroke="#000000" d="M413.097,-552.0575C406.9774,-554.7578 400.9513,-557.7428 395.3875,-561 356.0812,-584.0114 317.0296,-619.4208 292.7055,-643.3648"/>
<polygon fill="none" stroke="#000000" points="289.9535,-641.1662 285.3439,-650.7057 294.8963,-646.1229 289.9535,-641.1662"/>
</g>
<!-- \\GeoIp2\\Record\\Subdivision -->
<g id="node20" class="node">
<title>\\GeoIp2\\Record\\Subdivision</title>
<polygon fill="none" stroke="#000000" points="747.3875,-606 656.3875,-606 656.3875,-570 747.3875,-570 747.3875,-606"/>
<text text-anchor="middle" x="701.8875" y="-585.2" font-family="Courier,monospace" font-size="11.00" fill="#000000">Subdivision</text>
</g>
<!-- \\GeoIp2\\Record\\Subdivision&#45;&gt;\\GeoIp2\\Record\\AbstractPlaceRecord -->
<g id="edge20" class="edge">
<title>\\GeoIp2\\Record\\Subdivision&#45;&gt;\\GeoIp2\\Record\\AbstractPlaceRecord</title>
<path fill="none" stroke="#000000" d="M656.2145,-577.4601C626.1856,-570.5303 586.02,-561.2613 550.4967,-553.0636"/>
<polygon fill="none" stroke="#000000" points="551.1436,-549.621 540.6127,-550.7827 549.5695,-556.4418 551.1436,-549.621"/>
</g>
<!-- \\GeoIp2\\Record\\RepresentedCountry -->
<g id="node21" class="node">
<title>\\GeoIp2\\Record\\RepresentedCountry</title>
<polygon fill="none" stroke="#000000" points="1018.3875,-552 880.3875,-552 880.3875,-516 1018.3875,-516 1018.3875,-552"/>
<text text-anchor="middle" x="949.3875" y="-531.2" font-family="Courier,monospace" font-size="11.00" fill="#000000">RepresentedCountry</text>
</g>
<!-- \\GeoIp2\\Record\\RepresentedCountry&#45;&gt;\\GeoIp2\\Record\\Country -->
<g id="edge21" class="edge">
<title>\\GeoIp2\\Record\\RepresentedCountry&#45;&gt;\\GeoIp2\\Record\\Country</title>
<path fill="none" stroke="#000000" d="M880.1159,-534C836.4565,-534 781.4941,-534 744.2316,-534"/>
<polygon fill="none" stroke="#000000" points="744.2151,-530.5001 734.2151,-534 744.215,-537.5001 744.2151,-530.5001"/>
</g>
<!-- \\GeoIp2\\WebService\\Client -->
<g id="node22" class="node">
<title>\\GeoIp2\\WebService\\Client</title>
<polygon fill="none" stroke="#000000" points="977.8875,-230 920.8875,-230 920.8875,-194 977.8875,-194 977.8875,-230"/>
<text text-anchor="middle" x="949.3875" y="-209.2" font-family="Courier,monospace" font-size="11.00" fill="#000000">Client</text>
</g>
<!-- \\GeoIp2\\ProviderInterface -->
<g id="node31" class="node">
<title>\\GeoIp2\\ProviderInterface</title>
<polygon fill="none" stroke="#000000" points="767.3875,-190 636.3875,-190 636.3875,-154 767.3875,-154 767.3875,-190"/>
<text text-anchor="middle" x="701.8875" y="-169.2" font-family="Courier,monospace" font-size="11.00" fill="#000000">ProviderInterface</text>
</g>
<!-- \\GeoIp2\\WebService\\Client&#45;&gt;\\GeoIp2\\ProviderInterface -->
<g id="edge22" class="edge">
<title>\\GeoIp2\\WebService\\Client&#45;&gt;\\GeoIp2\\ProviderInterface</title>
<path fill="none" stroke="#000000" stroke-dasharray="1,5" d="M920.5118,-207.3332C885.6904,-201.7055 825.8223,-192.0299 777.5304,-184.2251"/>
<polygon fill="none" stroke="#000000" points="777.8447,-180.7306 767.4143,-182.5902 776.7278,-187.6409 777.8447,-180.7306"/>
</g>
<!-- \\GeoIp2\\Exception\\InvalidRequestException -->
<g id="node23" class="node">
<title>\\GeoIp2\\Exception\\InvalidRequestException</title>
<polygon fill="none" stroke="#000000" points="1035.3875,-472 863.3875,-472 863.3875,-436 1035.3875,-436 1035.3875,-472"/>
<text text-anchor="middle" x="949.3875" y="-451.2" font-family="Courier,monospace" font-size="11.00" fill="#000000">InvalidRequestException</text>
</g>
<!-- \\GeoIp2\\Exception\\HttpException -->
<g id="node26" class="node">
<title>\\GeoIp2\\Exception\\HttpException</title>
<polygon fill="none" stroke="#000000" points="753.8875,-472 649.8875,-472 649.8875,-436 753.8875,-436 753.8875,-472"/>
<text text-anchor="middle" x="701.8875" y="-451.2" font-family="Courier,monospace" font-size="11.00" fill="#000000">HttpException</text>
</g>
<!-- \\GeoIp2\\Exception\\InvalidRequestException&#45;&gt;\\GeoIp2\\Exception\\HttpException -->
<g id="edge23" class="edge">
<title>\\GeoIp2\\Exception\\InvalidRequestException&#45;&gt;\\GeoIp2\\Exception\\HttpException</title>
<path fill="none" stroke="#000000" d="M863.1715,-454C830.6001,-454 794.197,-454 764.2295,-454"/>
<polygon fill="none" stroke="#000000" points="763.9149,-450.5001 753.9148,-454 763.9148,-457.5001 763.9149,-450.5001"/>
</g>
<!-- \\GeoIp2\\Exception\\AddressNotFoundException -->
<g id="node24" class="node">
<title>\\GeoIp2\\Exception\\AddressNotFoundException</title>
<polygon fill="none" stroke="#000000" points="791.3875,-418 612.3875,-418 612.3875,-382 791.3875,-382 791.3875,-418"/>
<text text-anchor="middle" x="701.8875" y="-397.2" font-family="Courier,monospace" font-size="11.00" fill="#000000">AddressNotFoundException</text>
</g>
<!-- \\GeoIp2\\Exception\\GeoIp2Exception -->
<g id="node28" class="node">
<title>\\GeoIp2\\Exception\\GeoIp2Exception</title>
<polygon fill="none" stroke="#000000" points="526.8875,-364 408.8875,-364 408.8875,-328 526.8875,-328 526.8875,-364"/>
<text text-anchor="middle" x="467.8875" y="-343.2" font-family="Courier,monospace" font-size="11.00" fill="#000000">GeoIp2Exception</text>
</g>
<!-- \\GeoIp2\\Exception\\AddressNotFoundException&#45;&gt;\\GeoIp2\\Exception\\GeoIp2Exception -->
<g id="edge24" class="edge">
<title>\\GeoIp2\\Exception\\AddressNotFoundException&#45;&gt;\\GeoIp2\\Exception\\GeoIp2Exception</title>
<path fill="none" stroke="#000000" d="M623.6436,-381.9437C595.5993,-375.4719 564.2059,-368.2273 536.9912,-361.947"/>
<polygon fill="none" stroke="#000000" points="537.6987,-358.5184 527.1678,-359.6801 536.1247,-365.3391 537.6987,-358.5184"/>
</g>
<!-- \\GeoIp2\\Exception\\OutOfQueriesException -->
<g id="node25" class="node">
<title>\\GeoIp2\\Exception\\OutOfQueriesException</title>
<polygon fill="none" stroke="#000000" points="780.8875,-364 622.8875,-364 622.8875,-328 780.8875,-328 780.8875,-364"/>
<text text-anchor="middle" x="701.8875" y="-343.2" font-family="Courier,monospace" font-size="11.00" fill="#000000">OutOfQueriesException</text>
</g>
<!-- \\GeoIp2\\Exception\\OutOfQueriesException&#45;&gt;\\GeoIp2\\Exception\\GeoIp2Exception -->
<g id="edge25" class="edge">
<title>\\GeoIp2\\Exception\\OutOfQueriesException&#45;&gt;\\GeoIp2\\Exception\\GeoIp2Exception</title>
<path fill="none" stroke="#000000" d="M622.6658,-346C594.9196,-346 563.9981,-346 537.1321,-346"/>
<polygon fill="none" stroke="#000000" points="537.049,-342.5001 527.049,-346 537.049,-349.5001 537.049,-342.5001"/>
</g>
<!-- \\GeoIp2\\Exception\\HttpException&#45;&gt;\\GeoIp2\\Exception\\GeoIp2Exception -->
<g id="edge26" class="edge">
<title>\\GeoIp2\\Exception\\HttpException&#45;&gt;\\GeoIp2\\Exception\\GeoIp2Exception</title>
<path fill="none" stroke="#000000" d="M649.6187,-440.3203C637.2274,-436.5074 624.1872,-432.016 612.3875,-427 574.1755,-410.7562 533.1048,-387.0717 504.5534,-369.5055"/>
<polygon fill="none" stroke="#000000" points="506.0846,-366.3365 495.7429,-364.0344 502.3918,-372.2832 506.0846,-366.3365"/>
</g>
<!-- \\GeoIp2\\Exception\\AuthenticationException -->
<g id="node27" class="node">
<title>\\GeoIp2\\Exception\\AuthenticationException</title>
<polygon fill="none" stroke="#000000" points="787.8875,-310 615.8875,-310 615.8875,-274 787.8875,-274 787.8875,-310"/>
<text text-anchor="middle" x="701.8875" y="-289.2" font-family="Courier,monospace" font-size="11.00" fill="#000000">AuthenticationException</text>
</g>
<!-- \\GeoIp2\\Exception\\AuthenticationException&#45;&gt;\\GeoIp2\\Exception\\GeoIp2Exception -->
<g id="edge27" class="edge">
<title>\\GeoIp2\\Exception\\AuthenticationException&#45;&gt;\\GeoIp2\\Exception\\GeoIp2Exception</title>
<path fill="none" stroke="#000000" d="M623.6436,-310.0563C595.5993,-316.5281 564.2059,-323.7727 536.9912,-330.053"/>
<polygon fill="none" stroke="#000000" points="536.1247,-326.6609 527.1678,-332.3199 537.6987,-333.4816 536.1247,-326.6609"/>
</g>
<!-- \\Exception -->
<g id="node33" class="node">
<title>\\Exception</title>
<ellipse fill="none" stroke="#000000" cx="267.8875" cy="-18" rx="48.9926" ry="18"/>
<text text-anchor="middle" x="267.8875" y="-14.3" font-family="Times,serif" font-size="14.00" fill="#c0c0c0">\Exception</text>
</g>
<!-- \\GeoIp2\\Exception\\GeoIp2Exception&#45;&gt;\\Exception -->
<g id="edge28" class="edge">
<title>\\GeoIp2\\Exception\\GeoIp2Exception&#45;&gt;\\Exception</title>
<path fill="none" stroke="#000000" d="M456.8498,-327.8981C423.4437,-273.1121 323.3143,-108.8999 283.9923,-44.4117"/>
<polygon fill="none" stroke="#000000" points="286.8415,-42.3614 278.6471,-35.6456 280.8649,-46.0057 286.8415,-42.3614"/>
</g>
<!-- \\GeoIp2\\Database\\Reader -->
<g id="node29" class="node">
<title>\\GeoIp2\\Database\\Reader</title>
<polygon fill="none" stroke="#000000" points="977.8875,-150 920.8875,-150 920.8875,-114 977.8875,-114 977.8875,-150"/>
<text text-anchor="middle" x="949.3875" y="-129.2" font-family="Courier,monospace" font-size="11.00" fill="#000000">Reader</text>
</g>
<!-- \\GeoIp2\\Database\\Reader&#45;&gt;\\GeoIp2\\ProviderInterface -->
<g id="edge29" class="edge">
<title>\\GeoIp2\\Database\\Reader&#45;&gt;\\GeoIp2\\ProviderInterface</title>
<path fill="none" stroke="#000000" stroke-dasharray="1,5" d="M920.5118,-136.6668C885.6904,-142.2945 825.8223,-151.9701 777.5304,-159.7749"/>
<polygon fill="none" stroke="#000000" points="776.7278,-156.3591 767.4143,-161.4098 777.8447,-163.2694 776.7278,-156.3591"/>
</g>
<!-- \\GeoIp2\\Util -->
<g id="node30" class="node">
<title>\\GeoIp2\\Util</title>
<polygon fill="none" stroke="#000000" points="976.3875,-96 922.3875,-96 922.3875,-60 976.3875,-60 976.3875,-96"/>
<text text-anchor="middle" x="949.3875" y="-75.2" font-family="Courier,monospace" font-size="11.00" fill="#000000">Util</text>
</g>
</g>
</svg>
